<?xml version="1.0" standalone="no"?><!DOCTYPE svg PUBLIC "-//W3C//DTD SVG 1.1//EN" "http://www.w3.org/Graphics/SVG/1.1/DTD/svg11.dtd"><svg t="1599535469770" class="icon" viewBox="0 0 1024 1024" version="1.1" xmlns="http://www.w3.org/2000/svg" p-id="2753" width="128" height="128" xmlns:xlink="http://www.w3.org/1999/xlink"><defs><style type="text/css"></style></defs><path d="M907.2 432.96c-27.47 0-58.44 15.98-74.46 25.5C812 470.78 798 479.19 798 479.19l-7.38 4.43v20.14l-43.18 19.84c-2.23-17.04-7.87-33.5-20.4-47.74-25.03-28.44-74.39-43.73-155.33-48.12-10.34-0.56-20.35-0.85-29.74-0.85-38.02 0-66.97 4.59-88.96 12.59-6.99-32.27-33.37-35.17-42.3-35.17-21.74 0-45.95 12.46-58.46 19.89-15.76 9.37-26.41 15.76-26.41 15.76l-7.38 4.43v14.77l-0.17 0.1-9.44 3.28c-22.66-19.22-61.14-29.24-125.08-29.24-63.01 0-119.56 9.35-119.56 122.35 0 105.5 49.85 126.08 98.61 132.3 27.32 3.48 56.27 5.4 81.49 5.4 15.66 0 36.79-0.77 48.58-4.43 34.42-10.68 44.87-69.18 46.73-100.71 9.19-3.64 16.31-5.35 22.03-5.35 7.81 0 14.48 3.3 24.78 10.25 2.79 68.91 41.12 95.57 57.94 103.99 12.46 6.23 84.16 20.97 150.69 20.97 32.9 0 60.6-3.57 82.34-10.59 58.23-18.83 66.47-76.67 68.7-111.93 7.76-4.04 17.52-9.01 29.25-14.88 5.56-2.78 10.59-5.4 15.27-7.91v24.37l23.6-15.55c26.08-17.2 58.33-36.2 71.33-41.27 1.85 7.33 1.85 25.98 1.85 33.6 0 33.02 15.43 37.95 24.64 37.95 14.08 0 24.28-12.91 27.07-16.86 0.28-0.38 0.98-1.08 1.73-1.82 11.43-11.28 19.52-24.76 19.52-95.91-0.01-58.05-37.18-64.31-53.16-64.31z m-547.12 93.09c-8.43 0-15.64 1.39-22.07 3.35-0.08-0.88-0.17-1.72-0.26-2.58l4.31-2.84c17.1-11.27 38.02-23.77 49.31-29.16 0.18 1.86 0.3 4 0.39 6.2-2.81 9.26-4.46 19.01-5.32 29.06-9.47-2.71-18.2-4.03-26.36-4.03z" p-id="2754"></path><path d="M245.54 500.64l79.86-27.71s9.31-7.61 10.7 0.95c1.39 8.57 24.36 16.93-55.99 47.77-80.33 30.83-43.84 20.35-43.84 20.35l9.27-41.36z" fill="#C8C8C8" p-id="2755"></path><path d="M333.69 453.02v58.24s56.1-36.98 64.18-34.01c8.09 2.98 9.36 11.48 9.36 37.84 0 26.36 13.18 16.58 18.28 9.35 5.1-7.22 14.03-4.25 14.03-67.59s-63.76-28.91-79.49-19.55c-15.74 9.35-26.36 15.72-26.36 15.72z" fill="#424242" p-id="2756"></path><path d="M730.71 548.04l80.35-36.92s8.96-8.95 11.18 0c2.24 8.95 26.85 15.66-53.7 55.94-80.56 40.28-43.63 25.73-43.63 25.73l5.8-44.75z" fill="#C8C8C8" p-id="2757"></path><path d="M183.77 448.54c130.9 0 139.85 43.63 139.85 102.93 19.3-8.11 35.24-18.18 77.2 0 0-51.47 4.92-117.48 170.07-108.53 167.58 9.08 166.15 63.21 161.11 132.02-2.09 28.34 0.97 98.55-59.29 118.04-74.97 24.25-208.67-3.08-221.54-9.51-10-5-49.69-27.61-49.69-98.46-25.83-18.18-38.13-24.61-76.75-6.99 0 35.91-11.97 88.79-36.34 96.35-16.72 5.19-70.28 5.26-123.63-1.54-38.11-4.86-85.32-16.5-85.32-117.2-0.01-96.9 41.44-107.11 104.33-107.11z" fill="#D62727" p-id="2758"></path><path d="M152.58 475.95s73.92 2.75 100.69 5.6c26.29 2.8 43.63 22.37 43.63 71.6s-8.96 98.46-51.46 98.46c-42.52 0-100.68-1.04-115.23-15.66-23.55-23.64-23.55-45.87-23.5-87.27 0.05-36.66 8.81-69.8 45.87-72.73zM637.12 477.39c59.08 11.99 71.21 30.89 69.14 86.39-3.36 90.07-29.64 104.61-73.55 105.75-62.02 1.6-127.27 7.26-168.68-11.52-39.6-17.96-36.21-50.46-37.85-97.13-0.66-18.46 1.32-68.9 44.58-79.89 69.35-17.63 145.11-7.92 166.36-3.6z" fill="#B1EFFF" p-id="2759"></path><path d="M288.9 507.14l-53.51 53.51a6.935 6.935 0 0 0 0 9.81c2.7 2.7 7.09 2.71 9.81 0l48.64-48.64c-1.27-5.55-2.95-10.39-4.94-14.68zM611.63 473.62l-81.8 81.81a9.228 9.228 0 0 0 0 13.06c3.59 3.6 9.44 3.61 13.05 0l91.6-91.6c-5.42-1.01-13.16-2.2-22.85-3.27zM169.55 536.83l-60.27 60.28c1.22 6.29 3.02 12.12 5.66 17.7l66.29-66.29a8.245 8.245 0 0 0 0-11.69 8.26 8.26 0 0 0-11.68 0zM607.27 589.69l-81.08 81.08c8.21 0.49 16.65 0.74 25.32 0.79l68.81-68.81a9.228 9.228 0 0 0 0-13.06c-3.61-3.6-9.45-3.6-13.05 0z" fill="#FFFFFF" p-id="2760"></path><path d="M805.84 492.24v76.64s73.83-48.67 84.46-44.75c10.63 3.92 12.31 15.1 12.31 49.79s17.35 21.82 24.06 12.31c6.71-9.51 18.46-5.6 18.46-88.95s-83.91-38.04-104.61-25.73c-20.7 12.3-34.68 20.69-34.68 20.69z" fill="#424242" p-id="2761"></path></svg>